<?xml version="1.0" standalone="no"?>
<!DOCTYPE svg PUBLIC "-//W3C//DTD SVG 20010904//EN"
 "http://www.w3.org/TR/2001/REC-SVG-20010904/DTD/svg10.dtd">
<svg version="1.0" xmlns="http://www.w3.org/2000/svg"
 width="222.000000pt" height="174.000000pt" viewBox="0 0 222.000000 174.000000"
 preserveAspectRatio="xMidYMid meet">

<g transform="translate(0.000000,165.000000) scale(0.100000,-0.100000)"
fill="#000000" stroke="none">
<path d="M430 1684 c-204 -54 -372 -229 -416 -433 -19 -91 -17 -164 6 -255 27
-105 73 -189 145 -261 60 -61 918 -730 935 -730 10 0 851 649 913 704 137 123
209 333 177 519 -45 270 -286 472 -563 472 -98 0 -150 -12 -254 -61 -64 -29
-97 -53 -150 -106 -38 -38 -79 -90 -93 -116 -14 -26 -27 -47 -30 -47 -3 0 -16
21 -30 47 -14 27 -55 78 -91 116 -52 52 -85 76 -150 106 -46 21 -105 43 -131
50 -64 15 -201 13 -268 -5z m880 -574 c29 -80 61 -169 72 -197 l19 -53 126 0
125 0 -7 -37 c-4 -21 -8 -39 -10 -41 -7 -8 -286 -5 -294 4 -5 5 -20 41 -34 79
-53 149 -38 165 -142 -150 l-93 -280 -20 45 c-87 198 -154 346 -162 354 -4 4
-11 -1 -15 -13 -6 -20 -13 -21 -161 -21 l-154 0 0 40 0 40 63 1 c34 1 89 1
122 1 l61 0 34 99 c19 55 37 96 41 91 4 -4 44 -91 89 -194 46 -104 86 -188 89
-188 3 0 48 129 99 286 51 157 95 285 96 283 2 -2 27 -69 56 -149z"/>
</g>
</svg>
