<?xml version="1.0" standalone="no"?>
<!DOCTYPE svg PUBLIC "-//W3C//DTD SVG 20010904//EN"
 "http://www.w3.org/TR/2001/REC-SVG-20010904/DTD/svg10.dtd">
<svg version="1.0" xmlns="http://www.w3.org/2000/svg"
 width="845.000000pt" height="281.000000pt" viewBox="0 0 845.000000 281.000000"
 preserveAspectRatio="xMidYMid meet">

<g transform="translate(0.000000,260.000000) scale(0.100000,-0.100000)"
fill="#000000" stroke="none">
<path d="M3040 1390 c0 -1383 0 -1390 20 -1390 20 0 20 7 20 1390 0 1383 0
1390 -20 1390 -20 0 -20 -7 -20 -1390z"/>
<path d="M4677 2130 c-414 -75 -660 -448 -596 -904 13 -97 58 -231 101 -304
45 -76 159 -189 238 -235 36 -21 103 -50 150 -65 76 -24 101 -27 230 -27 164
0 230 13 345 69 76 38 195 138 195 164 -1 24 -115 142 -138 142 -10 0 -40 -16
-66 -36 -26 -19 -72 -47 -104 -62 -53 -25 -66 -27 -197 -27 -137 0 -141 1
-208 32 -128 61 -219 185 -253 346 -21 96 -14 268 15 356 31 97 97 190 171
239 85 57 125 67 265 67 133 0 174 -11 275 -72 80 -48 101 -45 154 23 78 99
78 100 26 145 -57 50 -177 112 -255 134 -70 19 -278 28 -348 15z"/>
<path d="M7801 2124 c-229 -62 -368 -266 -333 -491 30 -191 131 -281 407 -363
245 -73 306 -136 275 -284 -9 -44 -19 -62 -55 -94 -52 -49 -95 -62 -200 -62
-92 1 -156 22 -258 89 -98 64 -120 58 -189 -48 l-49 -76 48 -43 c105 -95 288
-157 458 -156 160 0 274 43 377 142 101 96 144 213 136 372 -9 199 -105 293
-401 392 -67 22 -145 51 -172 64 -94 44 -131 106 -115 194 10 54 36 89 91 120
39 22 56 25 140 25 96 0 98 -1 191 -47 51 -27 106 -48 121 -48 29 0 41 15 95
118 l27 54 -35 29 c-52 45 -166 97 -245 114 -88 18 -244 18 -314 -1z"/>
<path d="M430 2114 c-204 -54 -372 -229 -416 -433 -19 -91 -17 -164 6 -255 27
-105 73 -189 145 -261 60 -61 918 -730 935 -730 10 0 851 649 913 704 137 123
209 333 177 519 -45 270 -286 472 -563 472 -98 0 -150 -12 -254 -61 -64 -29
-97 -53 -150 -106 -38 -38 -79 -90 -93 -116 -14 -26 -27 -47 -30 -47 -3 0 -16
21 -30 47 -14 27 -55 78 -91 116 -52 52 -85 76 -150 106 -46 21 -105 43 -131
50 -64 15 -201 13 -268 -5z m880 -574 c29 -80 61 -169 72 -197 l19 -53 126 0
125 0 -7 -37 c-4 -21 -8 -39 -10 -41 -7 -8 -286 -5 -294 4 -5 5 -20 41 -34 79
-53 149 -38 165 -142 -150 l-93 -280 -20 45 c-87 198 -154 346 -162 354 -4 4
-11 -1 -15 -13 -6 -20 -13 -21 -161 -21 l-154 0 0 40 0 40 63 1 c34 1 89 1
122 1 l61 0 34 99 c19 55 37 96 41 91 4 -4 44 -91 89 -194 46 -104 86 -188 89
-188 3 0 48 129 99 286 51 157 95 285 96 283 2 -2 27 -69 56 -149z"/>
<path d="M5542 1368 l3 -763 122 -3 123 -3 2 546 3 545 234 -436 c255 -473
249 -464 336 -464 94 0 75 -29 436 662 68 131 127 237 131 238 3 0 7 -244 7
-542 1 -299 3 -542 6 -540 3 1 57 2 120 2 l115 0 0 760 0 760 -129 0 c-148 0
-151 -1 -199 -90 -123 -228 -439 -834 -459 -878 -13 -30 -25 -53 -27 -51 -2 2
-40 74 -84 159 -155 303 -444 835 -460 848 -11 8 -58 12 -149 12 l-133 0 2
-762z"/>
</g>
</svg>
